# xmcd
#
# Track frame offsets:
#	150
#	16930
#	34210
#	50149
#	62029
#	75141
#	94766
#	108401
#	122781
#	132657
#	143262
#	159662
#	171166
#	188065
#	201230
#	212034
#
# Disc length: 3139 seconds
#
# Revision: 8
# Processed by: cddbd v1.5.1PL0 Copyright (c) Steve Scherf et al.
# Submitted via: EasyCDDAExtractor 8.0.1.1
#
DISCID=dc0c4110
DTITLE=Johnny Cash - Unearthed Volume 2 (Trouble In Mind)
DYEAR=2003
DGENRE=Country
TTITLE0=Pocahontas
TTITLE1=I'm A Drifter (Version 1)
TTITLE2=Trouble In Mind
TTITLE3=Down The Line
TTITLE4=I'm Movin' On
TTITLE5=As Long As The Grass Shall Grow
TTITLE6=Heart Of Gold
TTITLE7=The Running Kind (Feat. Tom Petty)
TTITLE8=Everybody's Trying To Be My Baby
TTITLE9=Brown Eyed Handsome Man (Feat. Carl Perkins)
TTITLE10="T" For Texas
TTITLE11=Devil's Right Hand
TTITLE12=I'm A Drifter (Version 2)
TTITLE13=Like A Soldier (Feat. Willie Nelson)
TTITLE14=Drive On (Alternate Lyrics)
TTITLE15=Bird On A Wire (Live With Orchestra)
EXTD=Limited Edition Deluxe Packaging With 5 Discs.\\r\n06024 9861335 1 YEAR: 
EXTD=2003
EXTT0=
EXTT1=
EXTT2=
EXTT3=
EXTT4=
EXTT5=
EXTT6=
EXTT7=
EXTT8=
EXTT9=
EXTT10=
EXTT11=
EXTT12=
EXTT13=
EXTT14=
EXTT15=
PLAYORDER=
